HIERARCHY
ROOT root
{
	OFFSET	0	13.1	24.9
	CHANNELS 6  Xposition Yposition Zposition Xrotation Yrotation Zrotation
	JOINT spine_1
	{
		OFFSET	0	9.99999	0
		CHANNELS 3  Xrotation Yrotation Zrotation
		JOINT spine_2
		{
			OFFSET	0	112	-10
			CHANNELS 3  Xrotation Yrotation Zrotation
			JOINT spine_3
			{
				OFFSET	0	206.5	19.3
				CHANNELS 3  Xrotation Yrotation Zrotation
				JOINT spine_4
				{
					OFFSET	0	110.4	14.6
					CHANNELS 3  Xrotation Yrotation Zrotation
					JOINT neck_1
					{
						OFFSET	0	71.8	-50.3
						CHANNELS 3  Xrotation Yrotation Zrotation
						JOINT neck_2
						{
							OFFSET	0	86.2	-25.8
							CHANNELS 3  Xrotation Yrotation Zrotation
							JOINT head_ee
							{
								OFFSET	0	179.8	-8.7
								CHANNELS 3  Xrotation Yrotation Zrotation
								End Site
								{
									OFFSET	1	0	0
								}
							}
						}
					}
					JOINT left_clavicle
					{
						OFFSET	-43.2	22.4	-70.8
						CHANNELS 3  Xrotation Yrotation Zrotation
						JOINT left_shoulder
						{
							OFFSET	-93.9	-5.79999	48.7
							CHANNELS 3  Xrotation Yrotation Zrotation
							JOINT left_elbow
							{
								OFFSET	-291.4	-30.8	15.2
								CHANNELS 3  Xrotation Yrotation Zrotation
								JOINT left_lowarm_twist
								{
									OFFSET	-110.7	-3.89999	13.6
									CHANNELS 3  Xrotation Yrotation Zrotation
									JOINT left_hand
									{
										OFFSET	-110.7	-3.89999	13.6
										CHANNELS 3  Xrotation Yrotation Zrotation
										JOINT left_ee
										{
											OFFSET	-80.8	-5.10001	12.1
											CHANNELS 3  Xrotation Yrotation Zrotation
											End Site
											{
												OFFSET	1	0	0
											}
										}
									}
								}
							}
						}
					}
					JOINT right_clavicle
					{
						OFFSET	43.2	22.4	-70.8
						CHANNELS 3  Xrotation Yrotation Zrotation
						JOINT right_shoulder
						{
							OFFSET	93.9	-5.79999	48.7
							CHANNELS 3  Xrotation Yrotation Zrotation
							JOINT right_elbow
							{
								OFFSET	291.4	-30.8	15.2
								CHANNELS 3  Xrotation Yrotation Zrotation
								JOINT right_lowarm_twist
								{
									OFFSET	110.7	-3.89999	13.6
									CHANNELS 3  Xrotation Yrotation Zrotation
									JOINT right_hand
									{
										OFFSET	110.7	-3.89999	13.6
										CHANNELS 3  Xrotation Yrotation Zrotation
										JOINT right_ee
										{
											OFFSET	80.8	-5.10001	12.1
											CHANNELS 3  Xrotation Yrotation Zrotation
											End Site
											{
												OFFSET	1	0	0
											}
										}
									}
								}
							}
						}
					}
				}
			}
		}
	}
	JOINT left_hip
	{
		OFFSET	-82.8	-127.5	0.300001
		CHANNELS 3  Xrotation Yrotation Zrotation
		JOINT left_knee
		{
			OFFSET	-28.2	-396.7	2.2
			CHANNELS 3  Xrotation Yrotation Zrotation
			JOINT left_ankle
			{
				OFFSET	-11.7	-411.3	35.4
				CHANNELS 3  Xrotation Yrotation Zrotation
				JOINT left_toes
				{
					OFFSET	0	-60	-88.6
					CHANNELS 3  Xrotation Yrotation Zrotation
					JOINT left_foot_ee
					{
						OFFSET	-22.5	-16.5	-42.2
						CHANNELS 3  Xrotation Yrotation Zrotation
						End Site
						{
							OFFSET	1	0	0
						}
					}
				}
			}
		}
	}
	JOINT right_hip
	{
		OFFSET	82.8	-127.5	0.300001
		CHANNELS 3  Xrotation Yrotation Zrotation
		JOINT right_knee
		{
			OFFSET	28.2	-396.7	2.2
			CHANNELS 3  Xrotation Yrotation Zrotation
			JOINT right_ankle
			{
				OFFSET	11.7	-411.3	35.4
				CHANNELS 3  Xrotation Yrotation Zrotation
				JOINT right_toes
				{
					OFFSET	0	-60	-88.6
					CHANNELS 3  Xrotation Yrotation Zrotation
					JOINT right_foot_ee
					{
						OFFSET	22.5	-16.5	-42.2
						CHANNELS 3  Xrotation Yrotation Zrotation
						End Site
						{
							OFFSET	1	0	0
						}
					}
				}
			}
		}
	}
}
MOTION
Frames: 9
Frame Time: 0.02
391.555 721.904 -1204.45 -144.857260805 -9.78660018527 -176.942088534 13.697 0.582509 2.84774 13.7014 0.400197 2.879 13.7067 0.479696 2.86684 13.6965 0.926269 2.75524 -16.8337 7.94256 -5.49917 -17.1243 18.3304 -2.21758 -0.0 0.0 -0.0 -4.43354 18.6314 -4.53201 -12.7322 -45.2037 66.0404 0.275869 -7.78187 0.018763 33.613 -0.0593745 -4.23247 5.35779 -23.4384 25.7438 -0.0 0.0 -0.0 12.2081 10.214 -24.7476 89.3134 -72.489 23.9609 0.308728 8.69533 -0.0234717 85.1773 4.44777 8.87427 -4.80972 -25.9251 16.8977 0.0 0.0 0.0 46.5503 7.19196 6.73544 -27.7534 0.123537 4.21584 33.6739 21.7353 -4.43883 36.0776 -0.0 -0.0 -0.0 0.0 -0.0 50.5747 15.014 4.48504 -25.1555 -0.198937 -3.8243 42.4257 -24.344 5.37248 -19.3023 0.0 0.0 0.0 0.0 0.0 
395.577454805 723.586 -1194.38904049 -144.352823965 -6.95893995379 -179.401258264 14.1533 0.548679 3.52403 14.1602 0.323469 3.55176 14.1567 0.449487 3.53804 14.1406 1.00229 3.42288 -20.0051 7.91429 -6.60881 -20.405 18.6 -2.76095 -0.0 0.0 -0.0 -3.82491 18.2083 -3.69493 -20.1243 -45.7021 57.1998 0.633327 -17.4184 0.0970176 30.4863 0.0510698 -3.84848 4.11155 -25.2742 16.0786 -0.0 0.0 -0.0 10.7277 -1.0233 -21.1017 77.2822 -73.499 14.7357 0.383632 10.7604 -0.0361302 82.1721 4.09123 8.72744 -5.11051 -25.1623 19.2448 0.0 0.0 0.0 47.2768 15.3859 4.98852 -29.8177 0.0510065 4.52432 28.8106 15.2048 -3.80555 24.9664 -0.0 -0.0 -0.0 0.0 -0.0 51.7624 16.7337 3.58516 -26.2416 -0.169576 -3.9884 42.1644 -26.8477 5.43793 -29.2277 0.0 0.0 0.0 0.0 0.0 
395.463454503 723.586 -1194.34420798 -144.397119214 -6.43240386567 -179.781157492 14.1533 0.548679 3.52403 14.1602 0.323469 3.55176 14.1567 0.449487 3.53804 14.1406 1.00229 3.42288 -20.0051 7.91429 -6.60881 -20.405 18.6 -2.76095 -0.0 0.0 -0.0 -3.82491 18.2083 -3.69493 -20.1243 -45.7021 57.1998 0.633327 -17.4184 0.0970176 30.4863 0.0510698 -3.84848 4.11155 -25.2742 16.0786 -0.0 0.0 -0.0 10.7277 -1.0233 -21.1017 77.2822 -73.499 14.7357 0.383632 10.7604 -0.0361302 82.1721 4.09123 8.72744 -5.11051 -25.1623 19.2448 0.0 0.0 0.0 47.2768 15.3859 4.98852 -29.8177 0.0510065 4.52432 28.8106 15.2048 -3.80555 24.9664 -0.0 -0.0 -0.0 0.0 -0.0 51.7624 16.7337 3.58516 -26.2416 -0.169576 -3.9884 42.1644 -26.8477 5.43793 -29.2277 0.0 0.0 0.0 0.0 0.0 
395.155861101 723.586 -1194.23056517 -144.498243883 -5.02157168102 179.205554801 14.1533 0.548679 3.52403 14.1602 0.323469 3.55176 14.1567 0.449487 3.53804 14.1406 1.00229 3.42288 -20.0051 7.91429 -6.60881 -20.405 18.6 -2.76095 -0.0 0.0 -0.0 -3.82491 18.2083 -3.69493 -20.1243 -45.7021 57.1998 0.633327 -17.4184 0.0970176 30.4863 0.0510698 -3.84848 4.11155 -25.2742 16.0786 -0.0 0.0 -0.0 10.7277 -1.0233 -21.1017 77.2822 -73.499 14.7357 0.383632 10.7604 -0.0361302 82.1721 4.09123 8.72744 -5.11051 -25.1623 19.2448 0.0 0.0 0.0 47.2768 15.3859 4.98852 -29.8177 0.0510065 4.52432 28.8106 15.2048 -3.80555 24.9664 -0.0 -0.0 -0.0 0.0 -0.0 51.7624 16.7337 3.58516 -26.2416 -0.169576 -3.9884 42.1644 -26.8477 5.43793 -29.2277 0.0 0.0 0.0 0.0 0.0 
395.080004938 723.586 -1194.20415259 -144.519162103 -4.67574577316 178.958073958 14.1533 0.548679 3.52403 14.1602 0.323469 3.55176 14.1567 0.449487 3.53804 14.1406 1.00229 3.42288 -20.0051 7.91429 -6.60881 -20.405 18.6 -2.76095 -0.0 0.0 -0.0 -3.82491 18.2083 -3.69493 -20.1243 -45.7021 57.1998 0.633327 -17.4184 0.0970176 30.4863 0.0510698 -3.84848 4.11155 -25.2742 16.0786 -0.0 0.0 -0.0 10.7277 -1.0233 -21.1017 77.2822 -73.499 14.7357 0.383632 10.7604 -0.0361302 82.1721 4.09123 8.72744 -5.11051 -25.1623 19.2448 0.0 0.0 0.0 47.2768 15.3859 4.98852 -29.8177 0.0510065 4.52432 28.8106 15.2048 -3.80555 24.9664 -0.0 -0.0 -0.0 0.0 -0.0 51.7624 16.7337 3.58516 -26.2416 -0.169576 -3.9884 42.1644 -26.8477 5.43793 -29.2277 0.0 0.0 0.0 0.0 0.0 
395.325588351 723.586 -1194.29196316 -144.445718495 -5.79832258001 179.762652052 14.1533 0.548679 3.52403 14.1602 0.323469 3.55176 14.1567 0.449487 3.53804 14.1406 1.00229 3.42288 -20.0051 7.91429 -6.60881 -20.405 18.6 -2.76095 -0.0 0.0 -0.0 -3.82491 18.2083 -3.69493 -20.1243 -45.7021 57.1998 0.633327 -17.4184 0.0970176 30.4863 0.0510698 -3.84848 4.11155 -25.2742 16.0786 -0.0 0.0 -0.0 10.7277 -1.0233 -21.1017 77.2822 -73.499 14.7357 0.383632 10.7604 -0.0361302 82.1721 4.09123 8.72744 -5.11051 -25.1623 19.2448 0.0 0.0 0.0 47.2768 15.3859 4.98852 -29.8177 0.0510065 4.52432 28.8106 15.2048 -3.80555 24.9664 -0.0 -0.0 -0.0 0.0 -0.0 51.7624 16.7337 3.58516 -26.2416 -0.169576 -3.9884 42.1644 -26.8477 5.43793 -29.2277 0.0 0.0 0.0 0.0 0.0 
395.433840071 723.586 -1194.33280431 -144.408013765 -6.2959553525 -179.879441424 14.1533 0.548679 3.52403 14.1602 0.323469 3.55176 14.1567 0.449487 3.53804 14.1406 1.00229 3.42288 -20.0051 7.91429 -6.60881 -20.405 18.6 -2.76095 -0.0 0.0 -0.0 -3.82491 18.2083 -3.69493 -20.1243 -45.7021 57.1998 0.633327 -17.4184 0.0970176 30.4863 0.0510698 -3.84848 4.11155 -25.2742 16.0786 -0.0 0.0 -0.0 10.7277 -1.0233 -21.1017 77.2822 -73.499 14.7357 0.383632 10.7604 -0.0361302 82.1721 4.09123 8.72744 -5.11051 -25.1623 19.2448 0.0 0.0 0.0 47.2768 15.3859 4.98852 -29.8177 0.0510065 4.52432 28.8106 15.2048 -3.80555 24.9664 -0.0 -0.0 -0.0 0.0 -0.0 51.7624 16.7337 3.58516 -26.2416 -0.169576 -3.9884 42.1644 -26.8477 5.43793 -29.2277 0.0 0.0 0.0 0.0 0.0 
395.668635055 723.586 -1194.42597608 -144.314666028 -7.381573894 -179.09555293 14.1533 0.548679 3.52403 14.1602 0.323469 3.55176 14.1567 0.449487 3.53804 14.1406 1.00229 3.42288 -20.0051 7.91429 -6.60881 -20.405 18.6 -2.76095 -0.0 0.0 -0.0 -3.82491 18.2083 -3.69493 -20.1243 -45.7021 57.1998 0.633327 -17.4184 0.0970176 30.4863 0.0510698 -3.84848 4.11155 -25.2742 16.0786 -0.0 0.0 -0.0 10.7277 -1.0233 -21.1017 77.2822 -73.499 14.7357 0.383632 10.7604 -0.0361302 82.1721 4.09123 8.72744 -5.11051 -25.1623 19.2448 0.0 0.0 0.0 47.2768 15.3859 4.98852 -29.8177 0.0510065 4.52432 28.8106 15.2048 -3.80555 24.9664 -0.0 -0.0 -0.0 0.0 -0.0 51.7624 16.7337 3.58516 -26.2416 -0.169576 -3.9884 42.1644 -26.8477 5.43793 -29.2277 0.0 0.0 0.0 0.0 0.0 
395.882589315 723.586 -1194.51646993 -144.215361455 -8.37873532367 -178.371275319 14.1533 0.548679 3.52403 14.1602 0.323469 3.55176 14.1567 0.449487 3.53804 14.1406 1.00229 3.42288 -20.0051 7.91429 -6.60881 -20.405 18.6 -2.76095 -0.0 0.0 -0.0 -3.82491 18.2083 -3.69493 -20.1243 -45.7021 57.1998 0.633327 -17.4184 0.0970176 30.4863 0.0510698 -3.84848 4.11155 -25.2742 16.0786 -0.0 0.0 -0.0 10.7277 -1.0233 -21.1017 77.2822 -73.499 14.7357 0.383632 10.7604 -0.0361302 82.1721 4.09123 8.72744 -5.11051 -25.1623 19.2448 0.0 0.0 0.0 47.2768 15.3859 4.98852 -29.8177 0.0510065 4.52432 28.8106 15.2048 -3.80555 24.9664 -0.0 -0.0 -0.0 0.0 -0.0 51.7624 16.7337 3.58516 -26.2416 -0.169576 -3.9884 42.1644 -26.8477 5.43793 -29.2277 0.0 0.0 0.0 0.0 0.0 
